<?xml version="1.0"?><svg viewBox="0 0 64 64" xmlns="http://www.w3.org/2000/svg"><g data-name="10-wifi" id="_10-wifi"><path d="M37,55a1,1,0,0,0-1,1,4,4,0,1,1-1.6-3.2,1,1,0,0,0,1.2-1.6A5.94,5.94,0,0,0,32,50a6,6,0,1,0,6,6A1,1,0,0,0,37,55Z"/><path d="M63,16C62.572,15.428,52.252,2,32,2S1.422,15.428.992,16a5,5,0,0,0,7.982,6.025C9.288,21.616,16.838,12,32,12s22.708,9.615,23.018,10.019A5,5,0,0,0,63,16Zm-2.2,5.4a3,3,0,0,1-4.2-.594C56.267,20.365,48.123,10,32,10S7.725,20.367,7.387,20.808A3,3,0,0,1,2.592,17.2C3,16.662,12.73,4,32,4S61,16.662,61.4,17.2A3,3,0,0,1,60.8,21.4Z"/><path d="M32,19A31.783,31.783,0,0,0,9.231,28.708,5,5,0,0,0,12.989,37c.113,0,.226,0,.34-.011A4.971,4.971,0,0,0,16.757,35.3a21.6,21.6,0,0,1,30.5.017,5,5,0,0,0,7.51-6.6A31.777,31.777,0,0,0,32,19ZM52.976,34.257a3.085,3.085,0,0,1-4.229-.277,23.585,23.585,0,0,0-33.493,0,3,3,0,0,1-4.517-3.95,29.556,29.556,0,0,1,42.521,0,3,3,0,0,1-.282,4.233Z"/><path d="M46.123,41.1C45.469,40.574,39.523,36,32,36s-13.475,4.574-14.128,5.1a5,5,0,0,0,6.224,7.829C24.129,48.9,27.913,46,32,46s7.867,2.9,7.9,2.918A5,5,0,0,0,46.123,41.1Zm-.782,5.779a3.062,3.062,0,0,1-4.214.471C40.951,47.208,36.763,44,32,44c-4.79,0-8.959,3.21-9.135,3.348a3,3,0,0,1-3.743-4.691C19.714,42.181,25.141,38,32,38s12.282,4.181,12.878,4.657a3,3,0,0,1,.467,4.217Z"/></g></svg>